# xmcd
#
# Track frame offsets:
#	150
#	17432
#	35780
#	52327
#	70455
#	89297
#	105666
#	127553
#	143416
#	162305
#	180069
#	197086
#	216182
#	234245
#	253198
#	287262
#
# Disc length: 3843 seconds
#
# Revision: 1
# Processed by: cddbd v1.5.1PL0 Copyright (c) Steve Scherf et al.
# Submitted via: audiograbber 1.83.01
#
DISCID=d40f0110
DTITLE=Sound Choice - SC8920
DYEAR=2005
DGENRE=Country
TTITLE0=Leann Rimes - Probably Wouldn't Be This Way
TTITLE1=Dierks Bentley - Lot of Leavin' Left To Do
TTITLE2=Trick Pony - It's A Heartache
TTITLE3=Travis Tritt - I See Me
TTITLE4=Big and Rich - Big Time
TTITLE5=Blake Shelton - Goodbye Time
TTITLE6=Kenny Chesney - Guitars And Tiki Bars
TTITLE7=Craig Morgan - That's What I Love About Sunday
TTITLE8=Terri Clark - The World Needs a Drink
TTITLE9=Billy Dean - Let Them Be Little
TTITLE10=Toby Keith - Honky Tonk U
TTITLE11=George Canyon - My Name
TTITLE12=Gretchen Wilson - What Happened
TTITLE13=Rebecca Lynn Howard - That's Why I Hate Pontiacs
TTITLE14=Darryl Worley - If Something Should Happen
TTITLE15=Data - Data Track
EXTD=
EXTT0=
EXTT1=
EXTT2=
EXTT3=
EXTT4=
EXTT5=
EXTT6=
EXTT7=
EXTT8=
EXTT9=
EXTT10=
EXTT11=
EXTT12=
EXTT13=
EXTT14=
EXTT15=
PLAYORDER=
